<mxfile host="65bd71144e">
    <diagram id="NBz5Q_h23Wbg9nQ07jxv" name="第 1 页">
        <mxGraphModel dx="939" dy="332" grid="1" gridSize="10" guides="1" tooltips="1" connect="1" arrows="1" fold="1" page="1" pageScale="1" pageWidth="827" pageHeight="1169" math="0" shadow="0">
            <root>
                <mxCell id="0"/>
                <mxCell id="1" parent="0"/>
                <mxCell id="2" value="" style="shape=partialRectangle;whiteSpace=wrap;html=1;bottom=1;right=1;left=1;top=0;fillColor=none;routingCenterX=-0.5;" parent="1" vertex="1">
                    <mxGeometry x="130" y="240" width="80" height="150" as="geometry"/>
                </mxCell>
                <mxCell id="4" value="" style="shape=partialRectangle;whiteSpace=wrap;html=1;bottom=1;right=1;left=1;top=0;fillColor=none;routingCenterX=-0.5;" parent="1" vertex="1">
                    <mxGeometry x="260" y="240" width="80" height="150" as="geometry"/>
                </mxCell>
                <mxCell id="5" value="" style="shape=partialRectangle;whiteSpace=wrap;html=1;bottom=0;top=0;fillColor=none;" parent="1" vertex="1">
                    <mxGeometry x="400" y="240" width="90" height="150" as="geometry"/>
                </mxCell>
                <mxCell id="8" value="a&lt;br&gt;b&lt;br&gt;c" style="text;html=1;resizable=0;autosize=1;align=center;verticalAlign=middle;points=[];fillColor=none;strokeColor=none;rounded=0;fontSize=17;" parent="1" vertex="1">
                    <mxGeometry x="435" y="280" width="20" height="70" as="geometry"/>
                </mxCell>
                <mxCell id="9" value="inStack" style="text;html=1;resizable=0;autosize=1;align=center;verticalAlign=middle;points=[];fillColor=none;strokeColor=none;rounded=0;fontSize=17;" parent="1" vertex="1">
                    <mxGeometry x="135" y="400" width="70" height="30" as="geometry"/>
                </mxCell>
                <mxCell id="10" value="outStack" style="text;html=1;resizable=0;autosize=1;align=center;verticalAlign=middle;points=[];fillColor=none;strokeColor=none;rounded=0;fontSize=17;" parent="1" vertex="1">
                    <mxGeometry x="260" y="400" width="80" height="30" as="geometry"/>
                </mxCell>
                <mxCell id="11" value="1.如果outStack为空，就把inStack全部弹出，&lt;br&gt;放在outStack中，然后再弹出outStack" style="text;html=1;resizable=0;autosize=1;align=center;verticalAlign=middle;points=[];fillColor=none;strokeColor=none;rounded=0;fontSize=17;" parent="1" vertex="1">
                    <mxGeometry x="120" y="430" width="360" height="50" as="geometry"/>
                </mxCell>
                <mxCell id="12" value="&lt;font style=&quot;font-size: 17px&quot;&gt;a&lt;br&gt;b&lt;br&gt;c&lt;br&gt;&lt;/font&gt;" style="text;html=1;resizable=0;autosize=1;align=center;verticalAlign=middle;points=[];fillColor=none;strokeColor=none;rounded=0;" parent="1" vertex="1">
                    <mxGeometry x="290" y="320" width="20" height="50" as="geometry"/>
                </mxCell>
                <mxCell id="13" value="&lt;span style=&quot;font-size: 17px&quot;&gt;d&lt;br&gt;e&lt;br&gt;f&lt;br&gt;&lt;/span&gt;" style="text;html=1;resizable=0;autosize=1;align=center;verticalAlign=middle;points=[];fillColor=none;strokeColor=none;rounded=0;" parent="1" vertex="1">
                    <mxGeometry x="160" y="324" width="20" height="50" as="geometry"/>
                </mxCell>
            </root>
        </mxGraphModel>
    </diagram>
</mxfile>